<?xml version="1.0" encoding="utf-8"?>
<!-- Generator: Adobe Illustrator 24.2.3, SVG Export Plug-In . SVG Version: 6.00 Build 0)  -->
<svg version="1.1" xmlns="http://www.w3.org/2000/svg" xmlns:xlink="http://www.w3.org/1999/xlink" x="0px" y="0px"
	 viewBox="0 0 511.01 511.01" style="enable-background:new 0 0 511.01 511.01;" xml:space="preserve">
<style type="text/css">
	.st0{fill:#010202;}
	.st1{fill:#FFFFFF;}
</style>
<g id="circle">
	<circle class="st0" cx="255.51" cy="255.51" r="255.51"/>
</g>
<g id="person">
	<g>
		<ellipse class="st1" cx="255.68" cy="135.19" rx="67.83" ry="78.42"/>
		<path class="st1" d="M328.27,203.53c0,0-23.09,24.35-58,27.92c0,0,4.41,2.63,6.95,7.13c0,0,3.79-0.2,5.82,5.93
			c1.95,5.89,1.64,10.45,0.38,15.93c-1.12,4.86-3.05,6.02-6.1,7.41c0,0-1.78,4.41-9.1,8.63c0,0,1.22,3.47-1.03,7.41v24.4l1.83,6.15
			c0,0,0.84,2.67,1.13,6.9s0,14.39,0,14.39s0.28,8.42-9.5,8.42c-4.83,0-7.11,0-8.11,0c0,0-10.54,0.14-10.54-8.73s0-13.51,0-13.51
			s0.28-5.35,0.99-8.02c0.7-2.67,1.27-5.21,1.27-5.21v-24.92c0,0-1.83-2.11-0.84-7.32c0,0-4.93-1.83-9.29-8.17c0,0-3.38,0-5.21-3.8
			c-1.83-3.8-5.63-10-0.7-21.12c0,0,2.82-5.77,6.05-4.65c0,0,1.83-4.08,6.9-7.18c0,0-30.13-1.97-58.56-28.02
			c0,0-58.59,49.42-68.63,153.5h283.16C397.09,357.02,392.84,265.89,328.27,203.53z"/>
		<path class="st1" d="M255.83,237.19c-8.9,0-16.11,7.21-16.11,16.11s7.21,16.11,16.11,16.11c8.9,0,16.11-7.21,16.11-16.11
			S264.73,237.19,255.83,237.19z M255.83,263c-5.36,0-9.71-4.35-9.71-9.71s4.35-9.71,9.71-9.71c5.36,0,9.71,4.35,9.71,9.71
			S261.19,263,255.83,263z"/>
		<path class="st1" d="M255.78,253.79c-0.3-0.49-1.09-1.35-1.6-1.87c-0.38-0.38-1.38-1.15-1.85-1.51l-0.28,0.28
			c-1.3,1.31-1.26,3.42,0.08,4.68l1.7,1.61c1.34,1.27,3.5,1.23,4.8-0.08l0.2-0.2c-0.22-0.16-0.56-0.4-1.03-0.73
			C257.01,255.41,256.08,254.29,255.78,253.79z"/>
		<path class="st1" d="M257.81,249.6c-1.35-1.26-3.51-1.22-4.8,0.09l-0.19,0.19c0.32,0.24,0.76,0.57,1.2,0.93
			c0.83,0.67,1.58,1.64,2.06,2.32c0.48,0.69,1.32,1.48,1.67,1.81c0.29,0.27,1.22,0.97,1.57,1.22l0.29-0.29
			c1.29-1.31,1.25-3.42-0.09-4.68L257.81,249.6z"/>
		<path class="st1" d="M273.91,262.41c0.4,0,1.12,0,1.53,0c0.6,0,0.99-0.25,1.51-1.41s1.97-4.72,1.97-7.74
			c0-3.03-1.59-6.06-2.25-7.75c-0.58-1.47-1.6-1.33-1.6-1.33h-1.16c-3.34-6.61-10.17-11.16-18.09-11.16
			c-8.23,0-15.3,4.92-18.48,11.96c0.14-0.42,0.28-0.71,0.38-0.81h-1.46c0,0-1.02-0.14-1.6,1.33c-0.66,1.69-2.25,4.72-2.25,7.75
			c0,3.03,1.44,6.58,1.97,7.74c0.53,1.16,0.92,1.41,1.51,1.41s1.83,0,1.83,0s-0.01-0.02-0.02-0.06c2.73,5.46,7.84,9.51,13.98,10.79
			v5.29h-2.91v1.85l1.36,1v26.62c0,0,0,0.01-0.01,0.03c-0.08,0.31-0.71,2.86-1.34,5.68c-0.67,2.97-1.33,6.21-1.33,7.34
			c0,1.55,0,9.06,0,12.44c0,0.04,0,0.08,0,0.12c0,0.06-0.01,0.36,0.03,0.79c0.15,2.76,1.04,4.12,3.63,4.12c0.22,0,0.42,0,0.62,0
			c4.25,0,5.46,0,7.88,0c0.2,0,0.4,0,0.62,0c2.59,0,3.48-1.36,3.63-4.12c0.04-0.43,0.03-0.72,0.03-0.79c0-0.04,0-0.08,0-0.12
			c0-3.38,0-10.89,0-12.44c0-1.12-0.66-4.37-1.33-7.34c-0.63-2.82-1.26-5.37-1.34-5.68c-0.01-0.02-0.01-0.03-0.01-0.03v-26.62
			l1.36-1v-1.85h-2.91v-5.23C265.91,271.99,271.13,267.93,273.91,262.41z M255.83,272.47c-10.63,0-19.25-8.62-19.25-19.25
			s8.62-19.25,19.25-19.25s19.25,8.62,19.25,19.25S266.46,272.47,255.83,272.47z"/>
	</g>
</g>
<g id="text_original">
	<g>
		<path class="st1" d="M147.27,399.23L147.27,399.23l0.76-0.06c0,0,9.54-1.57,9.54-9.85s-9.37-9.64-12.65-9.64h-14.14h-8.57h-8.24
			v0.97h1.47c2.21,0.14,6.73,1.15,6.73,7.11l0.04-0.02v27.41c0,6.02-7.53,6.41-7.53,6.41h-0.71v0.97h8.24h8.57h13.67
			c0,0,1.33,0.1,3.27,0h0.01v0c5.1-0.26,14.39-1.89,14.77-10.3C163.02,400.84,152.75,399.23,147.27,399.23z M130.77,380.66h5.97
			c0,0,11.66-0.03,11.66,8.17s-5.49,10.42-12.23,10.42l0.07,0.06h-5.47V380.66z M141.38,421.56h-3.63c-6.17,0-6.99-6.41-6.99-6.41
			v-14.87h10.28c4.61,0.34,11.91,2.13,11.91,10.12C152.96,420.65,144.62,421.51,141.38,421.56z"/>
		<path class="st1" d="M206.9,380.39h1.27c0,0,6.9,0.21,6.9,6.03v25.54c-0.33,3.39-1.21,4.57-2.62,5.94c-0.11,0.1-0.21,0.2-0.32,0.3
			c-0.09,0.08-0.19,0.17-0.28,0.24c-0.02,0.02-0.04,0.03-0.06,0.05c-0.77,0.62-1.61,1.11-2.45,1.49c-2.05,0.87-4.95,1.37-9.71,1.37
			c-7.21,0-10.97-2.32-11.53-2.7c-2.16-1.7-3.66-4.32-3.89-8.26v-22.93c0.07-1.85,0.78-6.72,6.07-6.82h2.22v-0.95h-8.29h-8.7h-8.18
			v0.95h1.85c1.78,0.09,6.33,0.97,6.33,7.52v22.23c0,0-0.23,6.98,6.6,9.78s15.32,2.38,18.7,2.38h1.83h0.18l0.01,0
			c14.5-0.09,13.91-10.59,13.91-10.59v-25.54c0,0,1.06-6.03,7.3-6.03h0.93v-0.7H206.9V380.39z"/>
		<path class="st1" d="M275.44,379.69h-8.33v0.8h1.92c2.46,0.33,6.41,2.13,6.41,10.28v21.45l-31.8-32.53h-5.36h-1.68h-8.16v0.8h1.42
			c1.19,0.02,6.74,0.52,6.74,7.81v24.07c0,7.97-4.77,9.27-7.01,9.44h-1.15v0.77h18.06v-0.77c-7.48,0-8.18-6.93-8.23-8.9v-27.76
			l37.16,37.39h1.68v-34.75c0.34-3.03,1.91-7.3,8.06-7.3v-0.8h-8.06H275.44z"/>
		<path class="st1" d="M332.24,417.5c-3.43,2.71-10.93,3.13-10.93,3.13h-2.63c-3.39-0.01-7.17-1.16-10.55-3.48
			c-0.11-0.08-0.23-0.17-0.34-0.25c-0.14-0.1-0.27-0.21-0.41-0.31c-3.52-2.78-6.99-7.64-6.99-16.01c0,0,0,0,0,0
			c0-16.83,15.02-20.46,15.22-20.5c0.92-0.14,2-0.25,3.14-0.25h1.27c2.11,0,3.75,0.05,5.26,0.52c0.1,0.03,0.21,0.07,0.32,0.11
			c0.15,0.05,0.29,0.11,0.44,0.17c3.08,1.23,7.49,4.37,10,12.38h1.4v-13.54h-1.4c0,0-0.6,1.72-1.79,1.64s-2.09-0.08-3.53-0.68
			c-1.37-0.57-2.66-0.95-3.8-1.22c-2.18-0.44-4.65-0.55-6.12-0.59c-0.11,0-0.23-0.01-0.34-0.01h-2.59
			c-1.17,0.02-2.11,0.04-2.15,0.04c-0.77,0.05-2.08,0.17-3.67,0.41l0.01,0c-0.92,0.07-2.08,0.28-3.38,0.64c0,0,0,0,0,0c0,0,0,0,0,0
			c-0.59,0.16-1.22,0.36-1.86,0.59c-0.03,0.01-0.06,0.02-0.09,0.03c-0.64,0.23-1.31,0.49-1.98,0.79c0,0,0,0,0,0c0,0,0,0,0,0
			c-6.49,2.86-13.93,8.82-13.93,18.88c0,0.29,0.01,0.57,0.02,0.86c-0.36,8.33,4.8,13.64,6.31,15.02c3,2.97,5.94,4.14,5.94,4.14
			l0-0.01c5.15,2.3,10.9,2.55,10.9,2.55h7.32c2.01,0,8.02-0.9,11.99-3.91c4.37-3.32,5.12-9.42,5.12-9.42h-0.9
			C336.84,411.91,335.67,414.78,332.24,417.5z"/>
		<path class="st1" d="M386.88,414.38l-18.04-34.74h-2.32l-17.13,35.03c-3.5,7.15-9.48,7.14-9.48,7.14v0.63h17.52v-0.63
			c-8.01-0.9-6.18-6.44-5.52-7.95l4.06-8.56h17.23l5.21,10.26c2.47,4.86-6.89,5.97-6.89,5.97v1.02h25.6v-1.02
			C391.44,421.52,386.88,414.39,386.88,414.38z M356.58,404.02l7.71-16.26l8.26,16.26H356.58z"/>
	</g>
</g>
</svg>
